<mxfile host="app.diagrams.net" modified="2023-08-29T02:03:01.329Z" agent="Mozilla/5.0 (Linux; Android 5.1; A1601) AppleWebKit/537.36 (KHTML, like Gecko) Chrome/95.0.4638.74 Mobile Safari/537.36" version="21.6.9" etag="6UBfqcZ1Kgv5-IiAc3Zu" type="github">
  <diagram name="Halaman-1" id="DqEVxCOPSrnFAESHBNm3">
    <mxGraphModel>
      <root>
        <mxCell id="0" />
        <mxCell id="1" parent="0" />
      </root>
    </mxGraphModel>
  </diagram>
</mxfile>
